<?xml version="1.0" standalone="no"?>
<!DOCTYPE svg PUBLIC "-//W3C//DTD SVG 20010904//EN"
 "http://www.w3.org/TR/2001/REC-SVG-20010904/DTD/svg10.dtd">
<svg version="1.0" xmlns="http://www.w3.org/2000/svg"
 width="200.000000pt" height="200.000000pt" viewBox="0 0 200.000000 200.000000"
 preserveAspectRatio="xMidYMid meet">
<metadata>
Created by potrace 1.11, written by Peter Selinger 2001-2013
</metadata>
<g transform="translate(0.000000,200.000000) scale(0.100000,-0.100000)"
fill="#000000" stroke="none">
<path d="M780 1205 c0 -13 23 -15 145 -15 122 0 145 2 145 15 0 13 -23 15
-145 15 -122 0 -145 -2 -145 -15z"/>
<path d="M274 1101 c-3 -14 -12 -52 -20 -84 -18 -73 -17 -78 1 -71 14 6 28 43
39 104 2 14 7 37 11 51 5 20 3 26 -10 26 -9 0 -18 -12 -21 -26z"/>
<path d="M806 1122 c-5 -9 -11 -36 -23 -106 -8 -52 16 -45 33 10 l12 39 1 -42
c1 -57 20 -56 55 5 15 26 25 38 22 27 -19 -73 -19 -78 -5 -73 16 5 50 129 39
141 -14 16 -37 -5 -62 -56 l-27 -52 -1 45 c0 25 -4 50 -8 55 -9 13 -30 17 -36
7z"/>
<path d="M1154 1107 c-4 -18 -11 -23 -28 -20 -26 5 -41 -10 -50 -53 -8 -37 6
-51 50 -51 30 0 32 3 43 56 7 31 15 64 17 74 4 11 0 17 -10 17 -9 0 -18 -11
-22 -23z m-14 -66 c0 -10 -6 -24 -14 -30 -11 -9 -15 -7 -18 7 -6 23 9 55 23
47 5 -4 9 -14 9 -24z"/>
<path d="M1217 1124 c-4 -4 -4 -10 -1 -15 6 -10 34 0 34 12 0 10 -24 12 -33 3z"/>
<path d="M343 1082 c-16 -10 -30 -53 -25 -74 6 -31 82 -37 82 -7 0 6 -6 9 -13
6 -8 -3 -20 -1 -28 3 -11 8 -11 10 1 14 8 2 23 7 33 10 28 9 18 50 -13 54 -14
1 -30 -1 -37 -6z m37 -21 c0 -5 -7 -11 -14 -14 -10 -4 -13 -1 -9 9 6 15 23 19
23 5z"/>
<path d="M436 1074 c-8 -22 -9 -21 16 -43 18 -18 19 -21 5 -27 -9 -3 -21 -3
-27 1 -5 3 -10 -1 -10 -10 0 -23 59 -16 74 8 9 15 7 22 -13 38 -23 18 -22 21
8 23 8 1 16 7 19 14 6 19 -64 16 -72 -4z"/>
<path d="M537 1083 c-12 -11 -8 -40 8 -53 21 -18 19 -33 -4 -25 -23 7 -39 -13
-17 -21 9 -3 27 -3 41 0 18 5 25 13 25 32 0 13 -7 27 -15 30 -20 8 -19 26 1
22 10 -2 19 3 21 10 5 13 -48 18 -60 5z"/>
<path d="M643 1082 c-16 -10 -30 -53 -25 -74 6 -31 82 -37 82 -8 0 6 -4 9 -9
6 -12 -8 -41 4 -41 16 0 5 3 7 8 5 18 -11 52 13 52 38 0 21 -5 25 -27 25 -16
0 -33 -4 -40 -8z m37 -22 c0 -5 -7 -10 -16 -10 -8 0 -12 5 -9 10 3 6 10 10 16
10 5 0 9 -4 9 -10z"/>
<path d="M975 1080 c-15 -23 -22 -68 -14 -81 4 -8 24 -14 43 -15 34 -1 35 0
45 48 6 27 11 50 11 52 0 8 -80 4 -85 -4z m45 -39 c0 -10 -7 -24 -15 -31 -12
-10 -15 -9 -15 8 0 29 11 53 21 46 5 -3 9 -13 9 -23z"/>
<path d="M1206 1073 c-16 -57 -18 -93 -3 -93 8 0 17 13 20 29 3 16 9 40 13 55
5 20 2 26 -9 26 -9 0 -18 -8 -21 -17z"/>
<path d="M1267 1083 c-12 -11 -8 -40 8 -53 23 -19 18 -31 -9 -26 -18 3 -23 1
-19 -10 5 -15 30 -18 57 -8 20 8 21 50 1 58 -23 8 -18 29 5 23 13 -3 20 0 20
9 0 14 -50 20 -63 7z"/>
<path d="M1357 1063 c-24 -46 -8 -82 36 -83 20 0 50 31 53 56 8 56 -64 77 -89
27z m56 -5 c6 -20 -3 -46 -19 -52 -9 -3 -14 1 -14 13 0 41 23 68 33 39z"/>
<path d="M1479 1085 c-1 0 -5 -20 -14 -67 -6 -31 -4 -38 9 -38 11 0 18 13 22
39 4 22 13 42 22 46 12 4 14 -2 9 -40 -5 -35 -4 -45 8 -45 14 0 35 74 27 97
-3 9 -69 15 -83 8z"/>
<path d="M882 901 c-5 -3 -10 -35 -11 -71 l-2 -64 28 26 28 26 18 -24 c10 -13
21 -22 25 -20 4 2 7 33 7 68 l0 63 -42 1 c-23 1 -46 -2 -51 -5z"/>
</g>
</svg>
