<?xml version="1.0" standalone="no"?>
<!DOCTYPE svg PUBLIC "-//W3C//DTD SVG 20010904//EN"
 "http://www.w3.org/TR/2001/REC-SVG-20010904/DTD/svg10.dtd">
<svg version="1.0" xmlns="http://www.w3.org/2000/svg"
 width="453.000000pt" height="453.000000pt" viewBox="0 0 453.000000 453.000000"
 preserveAspectRatio="xMidYMid meet">
<metadata>
Created by potrace 1.11, written by Peter Selinger 2001-2013
</metadata>
<g transform="translate(0.000000,453.000000) scale(0.100000,-0.100000)"
fill="#000000" stroke="none">
<path d="M1889 2972 c-11 -2 -16 -16 -16 -47 -1 -49 9 -57 62 -51 17 2 38 0
47 -5 9 -5 19 -5 22 -1 6 10 127 9 143 -1 6 -4 14 -4 17 1 6 10 82 9 92 -1 4
-3 16 -2 26 4 14 8 23 8 31 0 5 -5 17 -7 26 -2 19 9 147 8 157 -1 4 -4 15 -3
26 3 13 7 23 7 31 0 7 -5 18 -6 25 -2 7 4 53 7 102 5 50 -1 92 2 95 7 11 17
11 76 1 85 -13 11 -96 12 -96 1 0 -5 -5 -5 -12 -1 -16 10 -228 11 -228 1 0 -5
-5 -5 -12 -1 -11 7 -507 12 -539 6z"/>
<path d="M349 2693 c-1 -5 -1 -10 -1 -14 0 -3 -9 -11 -21 -19 -20 -12 -21 -12
-8 3 7 10 9 17 4 17 -5 0 -15 -12 -21 -26 -7 -14 -8 -23 -4 -20 5 3 9 -1 9 -9
0 -8 -4 -12 -9 -9 -7 5 -10 -7 -13 -63 0 -11 -7 -29 -15 -39 -9 -11 -10 -15
-2 -10 6 4 12 2 12 -3 0 -6 -5 -11 -11 -11 -5 0 -7 -4 -4 -10 3 -5 3 -16 -2
-22 -10 -16 -14 -43 -16 -91 -2 -25 -6 -36 -15 -32 -10 4 -10 0 -1 -17 10 -18
9 -20 -6 -14 -14 5 -15 4 -7 -7 9 -10 8 -17 -1 -27 -10 -10 -9 -11 3 -5 13 8
13 7 1 -8 -7 -9 -10 -17 -5 -17 5 0 1 -7 -9 -14 -19 -15 -30 -87 -18 -120 6
-16 9 -16 22 -5 8 8 21 15 29 17 8 2 17 8 18 13 2 5 9 6 14 3 6 -4 8 -2 4 4
-3 6 -1 14 5 17 5 4 8 13 5 20 -2 7 2 16 10 19 9 3 12 10 9 16 -3 5 -2 10 3
10 5 0 8 14 7 30 -1 17 1 30 5 30 5 0 6 9 3 20 -3 12 0 20 6 20 7 0 9 -6 5
-12 -4 -7 -3 -9 1 -5 17 15 14 39 -3 32 -14 -5 -14 -4 -1 12 9 10 15 35 15 56
-1 20 3 37 8 37 4 0 5 7 2 16 -4 10 -2 13 6 8 8 -5 9 -2 5 9 -3 10 -3 17 2 17
4 0 6 12 3 26 -4 21 -2 25 9 19 12 -7 12 -6 1 7 -8 10 -9 19 -3 22 5 3 8 17 7
31 -2 13 0 22 5 20 4 -3 10 -1 14 5 3 5 0 10 -7 10 -8 0 -9 3 -3 8 6 4 11 13
13 20 2 10 -2 10 -20 1 -21 -11 -22 -11 -9 4 12 15 11 17 -8 17 -12 0 -19 5
-16 10 3 6 4 10 1 10 -3 0 -7 -3 -7 -7z"/>
<path d="M3054 2658 c-4 -21 -10 -38 -15 -38 -5 0 -8 -16 -7 -35 1 -20 -4 -41
-10 -47 -9 -9 -12 -8 -12 6 0 9 -4 14 -10 11 -5 -3 -10 -2 -10 3 0 12 -60 10
-79 -2 -10 -6 -12 -6 -7 2 4 7 3 12 -3 12 -5 0 -12 -9 -16 -19 -4 -12 -12 -18
-21 -14 -8 3 -14 -1 -14 -11 0 -9 -5 -16 -11 -16 -5 0 -7 -4 -4 -10 3 -5 -2
-10 -12 -10 -15 0 -16 -2 -3 -10 12 -8 12 -10 -2 -15 -9 -4 -14 -13 -11 -21 3
-8 -1 -14 -8 -14 -9 0 -10 -3 -3 -8 11 -8 14 -53 3 -46 -14 8 -15 -51 -1 -79
7 -16 11 -35 8 -43 -3 -8 -2 -13 2 -10 5 3 20 -2 33 -12 33 -23 81 -22 96 3 7
11 12 14 13 8 0 -9 7 -10 25 -3 16 6 27 6 31 -2 4 -7 3 -8 -4 -4 -7 4 -12 2
-12 -3 0 -14 51 -14 70 0 12 9 11 10 -5 5 -20 -6 -20 -6 -1 9 11 8 16 15 12
15 -5 0 -2 8 5 17 10 11 10 14 2 9 -7 -4 -13 -2 -13 3 0 6 4 11 9 11 4 0 6 12
3 26 -4 20 -2 25 8 19 9 -5 10 -2 5 15 -5 14 -3 20 3 16 6 -4 8 2 5 14 -3 11
0 26 6 34 9 10 9 15 1 18 -6 2 -8 11 -5 21 4 9 11 15 15 12 5 -3 12 0 16 6 4
8 3 9 -4 5 -16 -10 -15 16 1 33 10 11 9 12 -3 6 -12 -7 -13 -6 -4 6 6 8 10 22
9 32 -2 9 0 17 5 17 4 0 6 10 2 22 -4 16 -2 19 9 13 12 -7 12 -6 1 7 -9 11
-10 18 -2 23 5 3 10 15 10 26 0 11 -4 17 -10 14 -5 -3 -10 -2 -10 3 0 5 -16 9
-35 9 -33 0 -36 -3 -41 -39z m-59 -190 c7 -18 10 -39 5 -48 -4 -8 -6 -23 -5
-32 2 -10 -1 -18 -5 -18 -5 0 -7 -9 -5 -20 2 -11 -1 -19 -8 -17 -7 1 -11 -3
-10 -10 1 -6 -11 -16 -27 -21 -25 -9 -31 -8 -43 12 -13 20 -13 24 1 35 10 6
12 9 5 6 -6 -3 -14 -1 -18 5 -3 5 0 10 7 10 11 0 10 2 0 9 -11 7 -11 9 2 14
10 4 13 13 9 23 -4 11 -2 15 4 11 7 -5 9 1 5 15 -4 17 -2 20 12 15 10 -4 15
-3 11 3 -3 6 0 10 7 10 10 0 10 2 -1 9 -11 7 -9 10 10 14 13 2 25 5 27 6 2 0
9 -14 17 -31z"/>
<path d="M3257 2685 c-8 -8 -17 -11 -20 -8 -10 9 0 -33 13 -56 11 -21 40 -29
40 -12 0 5 9 11 21 14 12 3 18 10 14 16 -4 7 0 8 11 4 15 -6 15 -4 0 19 -9 13
-14 27 -11 30 3 2 -2 5 -10 5 -8 0 -11 -5 -8 -11 3 -6 0 -5 -8 2 -17 16 -24
15 -42 -3z"/>
<path d="M2006 2679 c4 -7 0 -9 -14 -5 -12 4 -26 1 -35 -8 -8 -8 -18 -12 -23
-8 -5 4 -3 0 4 -9 6 -9 10 -18 7 -20 -6 -6 -18 -70 -17 -92 0 -9 -3 -15 -8
-12 -6 3 -7 -1 -4 -9 3 -9 2 -16 -4 -16 -5 0 -8 -18 -7 -40 1 -22 -2 -43 -6
-46 -5 -3 -9 -18 -9 -33 0 -15 -6 -33 -12 -40 -11 -11 -10 -12 2 -6 13 7 13 6
2 -7 -7 -8 -9 -24 -5 -33 4 -11 2 -16 -4 -12 -5 3 -10 0 -10 -8 0 -8 4 -12 8
-10 4 3 5 -3 3 -12 -3 -11 3 -23 16 -31 11 -7 20 -8 20 -2 0 5 6 7 14 4 8 -3
19 3 26 15 6 12 7 21 3 21 -4 0 2 7 13 15 16 13 16 14 1 9 -13 -5 -16 -2 -11
10 3 9 9 14 14 11 4 -2 4 13 0 35 -4 22 -4 37 1 35 4 -3 10 -1 14 5 3 5 1 10
-5 10 -6 0 -8 5 -5 10 4 6 9 8 13 6 4 -2 8 6 9 17 6 74 8 84 20 80 8 -3 10
-18 7 -45 -4 -28 -3 -38 5 -34 7 5 9 1 5 -8 -3 -9 -10 -13 -15 -10 -5 3 -9 0
-9 -5 0 -6 5 -11 10 -11 7 0 7 -7 -1 -22 -10 -18 -9 -20 4 -15 11 4 14 2 11
-7 -9 -23 -9 -106 -1 -106 5 0 5 -5 2 -11 -5 -6 9 -9 39 -8 25 2 46 7 46 11 0
5 4 6 10 3 6 -3 7 1 4 9 -3 9 -1 16 6 16 6 0 8 5 5 10 -3 6 -1 10 5 10 7 0 10
6 7 14 -3 8 1 22 10 33 14 17 14 17 9 0 -3 -10 -2 -16 3 -13 5 3 9 17 9 32 0
14 6 30 13 35 8 5 10 9 4 9 -5 0 -4 4 3 9 8 5 15 20 15 34 1 14 7 25 12 24 6
-1 9 6 9 15 -1 10 4 14 12 11 10 -3 12 0 8 10 -3 8 -2 17 3 20 4 3 9 -6 9 -19
1 -13 -2 -24 -8 -24 -5 0 -7 -4 -4 -9 9 -15 -5 -42 -18 -34 -6 4 -5 -1 3 -10
8 -11 9 -17 3 -17 -6 0 -9 -6 -6 -14 3 -8 0 -17 -6 -21 -8 -5 -8 -11 1 -21 9
-11 9 -14 0 -14 -7 0 -9 -4 -6 -10 3 -5 1 -10 -5 -10 -8 0 -7 -6 1 -21 7 -13
7 -19 1 -15 -6 3 -13 2 -17 -4 -3 -5 -1 -10 5 -10 7 0 7 -7 -1 -22 -6 -13 -8
-20 -4 -16 5 4 14 3 22 -3 10 -9 13 -7 13 7 0 17 1 17 15 -2 8 -10 15 -14 15
-7 0 7 6 10 14 7 8 -3 17 0 22 7 4 8 3 10 -4 5 -16 -10 -15 3 2 36 11 20 11
28 3 32 -8 3 -8 5 1 5 7 1 10 6 7 11 -3 6 -3 16 2 23 10 17 15 37 15 70 0 18
6 27 17 27 12 0 13 2 3 9 -14 8 -13 32 2 43 5 3 10 24 10 46 1 22 4 44 9 48 4
4 1 14 -6 22 -6 9 -7 13 -2 10 6 -4 15 5 22 18 7 16 8 22 0 17 -6 -4 -8 0 -5
9 4 8 0 15 -8 15 -7 0 -10 -5 -7 -11 4 -6 -4 -2 -17 9 -13 11 -20 15 -17 9 4
-7 0 -15 -9 -18 -8 -3 -13 -2 -10 3 3 5 -1 12 -10 15 -8 3 -12 2 -9 -3 3 -5 1
-12 -5 -16 -5 -3 -10 -1 -10 4 0 6 -5 11 -11 11 -5 0 -7 -4 -4 -10 3 -5 -1
-10 -10 -10 -9 0 -13 -4 -10 -10 3 -5 1 -10 -5 -10 -6 0 -9 -4 -5 -9 3 -6 -5
-20 -17 -32 -13 -12 -16 -18 -8 -14 12 6 12 5 3 -5 -6 -7 -9 -19 -6 -27 3 -8
0 -13 -8 -11 -8 2 -13 -3 -11 -9 1 -7 -2 -13 -8 -13 -5 0 -9 -3 -9 -7 3 -20
-2 -34 -11 -28 -6 4 -7 -1 -3 -11 4 -10 2 -15 -3 -11 -5 3 -11 -6 -12 -21 -1
-15 -8 -31 -16 -37 -7 -5 -13 -13 -14 -18 -2 -25 -10 -32 -23 -19 -10 9 -10
12 0 12 7 0 9 5 4 13 -4 6 -9 53 -10 102 -1 50 -2 98 -2 108 -1 10 -5 16 -10
13 -5 -3 -9 0 -8 7 1 36 -5 55 -19 61 -8 3 -12 2 -9 -3 3 -5 1 -12 -5 -16 -5
-3 -10 -2 -10 3 0 6 -7 13 -16 16 -9 4 -13 2 -8 -5z"/>
<path d="M2080 2651 c0 -6 4 -13 10 -16 6 -3 7 1 4 9 -7 18 -14 21 -14 7z"/>
<path d="M3484 2576 c-3 -8 -17 -12 -35 -11 -16 1 -29 -1 -29 -6 0 -5 -5 -9
-11 -9 -25 0 -41 -32 -41 -80 1 -44 23 -100 37 -92 13 6 25 0 25 -13 0 -9 6
-12 17 -8 11 4 14 3 9 -5 -4 -7 -2 -12 3 -12 6 0 10 -11 9 -24 -1 -14 -5 -23
-9 -20 -4 2 -11 -1 -15 -7 -4 -8 -9 -7 -15 2 -6 11 -11 11 -20 2 -9 -9 -15 -8
-26 3 -19 18 -35 18 -59 -2 -19 -15 -19 -16 1 -10 20 6 20 6 1 -9 -11 -8 -15
-15 -9 -15 7 0 14 -8 17 -18 7 -21 15 -23 105 -23 51 0 68 4 85 20 13 12 25
19 28 16 2 -3 5 1 6 8 1 6 5 31 10 55 8 35 7 44 -7 52 -10 6 -11 10 -3 10 8 0
6 6 -5 18 -10 11 -21 17 -26 15 -4 -2 -10 3 -13 11 -3 9 -10 14 -14 11 -10 -6
-25 13 -34 41 -6 19 -3 21 53 20 32 -1 57 -4 55 -8 -2 -4 -1 -9 4 -12 5 -3 9
0 10 7 0 7 3 22 6 35 3 15 0 25 -9 29 -8 3 -12 10 -8 16 4 6 1 7 -7 2 -7 -4
-16 -2 -21 6 -5 8 -9 9 -9 3 0 -6 -10 -10 -22 -9 -13 2 -22 8 -20 14 3 16 -8
14 -14 -3z m-109 -286 c3 -6 -1 -7 -9 -4 -18 7 -21 14 -7 14 6 0 13 -4 16 -10z"/>
<path d="M3800 2580 c0 -10 -10 -16 -29 -16 -34 -2 -80 -33 -73 -52 2 -7 -2
-10 -12 -6 -12 5 -15 2 -10 -10 3 -9 1 -16 -6 -16 -6 0 -8 -4 -5 -10 3 -5 1
-10 -6 -10 -6 0 -9 -8 -6 -20 3 -11 1 -23 -4 -26 -5 -3 -7 -10 -3 -15 3 -5 -2
-22 -12 -37 -17 -26 -17 -26 1 -12 16 13 18 13 13 0 -3 -8 -1 -23 4 -32 5 -12
5 -18 -1 -18 -6 0 -8 -7 -5 -15 4 -8 10 -12 15 -9 5 3 9 -2 9 -10 0 -8 10 -18
21 -21 17 -6 19 -9 8 -17 -10 -7 -8 -7 9 -3 12 3 22 3 22 -2 0 -4 18 -8 40 -8
22 0 40 3 40 8 0 4 5 7 11 7 5 0 7 -4 4 -10 -13 -21 5 -9 39 26 21 22 40 33
47 28 8 -4 9 -3 5 4 -8 13 17 56 26 47 3 -3 4 8 2 25 -3 23 0 29 9 24 8 -5 7
-2 -2 9 -12 15 -11 17 5 17 16 0 17 2 4 10 -13 9 -13 10 0 10 13 0 13 1 0 10
-9 6 -14 21 -12 40 2 17 -1 30 -8 30 -6 0 -10 8 -8 18 2 11 -4 18 -20 20 -12
2 -20 8 -17 13 7 10 4 11 -43 13 -19 1 -38 9 -43 17 -7 12 -9 12 -9 -1z m-60
-34 c0 -2 -8 -10 -17 -17 -16 -13 -17 -12 -4 4 13 16 21 21 21 13z m96 -78
c-7 -5 -4 -8 7 -8 10 0 15 -4 12 -10 -3 -5 -1 -10 5 -10 6 0 8 -5 5 -10 -4 -6
-11 -7 -17 -4 -5 4 -5 -4 2 -16 11 -20 10 -22 -3 -17 -11 4 -14 2 -10 -8 3 -8
10 -12 15 -9 6 4 3 -5 -6 -18 -9 -14 -14 -28 -11 -31 3 -4 2 -5 -1 -2 -4 2
-13 -2 -21 -10 -11 -12 -19 -13 -36 -3 -20 10 -21 10 -8 -6 12 -14 12 -16 -3
-10 -9 3 -16 12 -16 20 0 8 -5 14 -10 14 -7 0 -7 6 0 19 5 11 7 27 4 35 -3 9
-2 16 3 16 5 0 9 10 8 23 -2 24 40 71 56 62 5 -4 9 -1 9 5 0 7 5 6 14 -2 10
-9 11 -15 2 -20z"/>
<path d="M574 2569 c-3 -6 -17 -9 -29 -7 -16 4 -22 1 -18 -9 5 -12 -8 -18 -30
-14 -5 1 -6 -3 -2 -9 3 -5 -1 -10 -9 -10 -9 0 -16 -5 -16 -11 0 -5 6 -7 13 -3
6 4 -2 -6 -20 -22 -19 -18 -31 -38 -29 -49 2 -11 0 -32 -4 -46 -4 -14 -3 -34
2 -44 8 -14 8 -16 -2 -10 -10 6 -11 4 -5 -11 4 -10 8 -27 9 -36 0 -9 5 -14 10
-11 5 4 7 -1 3 -10 -3 -9 -1 -19 5 -23 7 -4 8 -3 4 4 -12 20 5 13 26 -10 11
-13 17 -17 13 -10 -3 6 -1 12 4 12 6 0 11 -6 11 -13 0 -16 81 -17 92 -2 5 6 8
5 8 -4 0 -9 4 -10 13 -4 6 6 20 9 30 8 15 -3 16 -1 6 11 -10 12 -9 13 4 9 8
-4 18 -2 22 4 3 6 0 11 -7 11 -8 0 -9 3 -3 8 6 4 11 12 12 19 3 15 -24 25 -33
12 -4 -7 -10 -6 -19 1 -10 8 -15 8 -21 -1 -5 -8 -3 -10 7 -4 8 5 10 4 6 0 -11
-12 -37 -15 -37 -4 0 5 -5 9 -11 9 -5 0 -7 -5 -3 -11 3 -6 -6 -3 -20 6 -31 21
-33 62 -3 57 9 -2 17 2 17 9 0 8 4 8 15 -1 12 -10 16 -9 21 5 5 11 9 13 14 6
4 -8 15 -5 32 9 15 11 30 20 35 20 4 0 0 -5 -9 -11 -10 -5 -18 -15 -18 -20 0
-14 35 21 35 35 1 6 5 10 11 9 5 -1 11 8 11 20 1 12 7 23 13 25 8 3 7 8 -1 18
-9 11 -8 14 2 14 11 0 11 2 -1 10 -8 5 -11 10 -7 10 4 0 -1 9 -12 21 -12 13
-24 18 -33 13 -11 -6 -11 -5 0 8 11 13 8 15 -18 12 -19 -2 -30 1 -30 9 0 8 -4
7 -10 -3 -8 -12 -10 -12 -10 -1 0 11 -3 11 -17 0 -11 -10 -14 -10 -9 -1 4 6 5
12 2 12 -3 0 -8 -5 -12 -11z m50 -80 c-4 9 -3 12 4 8 25 -16 -14 -74 -43 -64
-8 4 -17 1 -21 -5 -4 -7 -9 -6 -15 3 -13 21 -11 27 11 34 11 3 20 13 20 21 0
8 5 12 10 9 6 -3 10 -1 10 6 0 7 7 4 16 -7 8 -10 12 -13 8 -5z"/>
<path d="M906 2573 c-4 -4 -19 -9 -34 -10 -15 -2 -32 -4 -39 -5 -7 -1 -10 -5
-8 -9 3 -4 -2 -10 -11 -13 -8 -3 -12 -10 -9 -16 3 -5 1 -10 -5 -10 -6 0 -8 -5
-4 -12 5 -8 2 -9 -11 -4 -13 5 -15 3 -8 -6 17 -23 24 -50 10 -42 -9 5 -9 4 1
-7 15 -16 16 -33 0 -23 -7 4 -8 3 -4 -5 6 -9 11 -9 24 1 9 7 13 8 9 2 -3 -6 5
-21 18 -32 14 -12 25 -19 25 -14 0 4 5 -1 11 -10 5 -10 17 -18 26 -18 11 0 13
-3 5 -12 -10 -12 -12 -19 -12 -34 0 -4 -7 -1 -16 6 -8 8 -14 9 -13 4 4 -21 -2
-28 -11 -14 -8 12 -10 12 -10 1 0 -11 -3 -11 -17 0 -15 12 -16 12 -8 -1 7 -13
6 -13 -7 -2 -9 7 -25 15 -37 17 -18 3 -21 -1 -21 -35 0 -25 5 -40 16 -44 10
-4 13 -2 9 7 -4 6 -1 5 7 -3 14 -16 108 -22 108 -7 0 4 5 5 11 1 6 -3 15 0 20
7 7 11 9 11 9 1 0 -10 4 -9 16 2 8 9 19 14 24 11 5 -3 12 0 16 6 4 8 3 9 -4 5
-7 -4 -12 -3 -12 1 0 5 9 14 21 21 15 10 18 16 10 26 -7 9 -7 16 1 24 9 9 9
12 -1 12 -7 0 -10 4 -6 9 3 5 -2 16 -10 24 -8 9 -15 20 -15 26 0 6 -7 11 -16
11 -8 0 -12 5 -9 10 6 9 -8 14 -27 11 -5 0 -8 6 -8 15 0 8 -4 13 -9 10 -5 -3
-11 5 -13 18 -4 19 -1 22 19 20 13 -1 23 2 23 8 0 5 12 1 28 -10 22 -16 29
-17 39 -7 6 7 9 16 5 21 -4 4 0 5 9 2 9 -4 16 -1 16 8 0 8 -4 14 -8 14 -4 0
-6 8 -4 18 2 14 -4 17 -34 17 -20 -1 -39 4 -43 10 -5 6 -8 6 -8 -2 0 -7 -5
-13 -11 -13 -5 0 -7 5 -4 10 7 12 2 13 -9 3z m89 -283 c-3 -5 -12 -10 -18 -10
-7 0 -6 4 3 10 19 12 23 12 15 0z"/>
<path d="M1190 2570 c0 -4 -12 -7 -26 -5 -15 1 -28 -3 -31 -11 -3 -8 -9 -11
-14 -8 -5 3 -9 -2 -9 -11 0 -9 -4 -13 -10 -10 -6 3 -10 -4 -11 -17 0 -13 -2
-33 -5 -45 -2 -12 1 -25 6 -28 6 -4 8 -10 6 -14 -3 -4 4 -14 15 -22 12 -8 33
-24 47 -36 15 -13 32 -23 37 -23 6 0 3 -5 -5 -10 -11 -7 -11 -10 -2 -10 10 0
10 -3 0 -14 -7 -7 -19 -11 -25 -9 -7 3 -13 -1 -13 -8 0 -11 -3 -11 -10 1 -8
12 -10 12 -10 1 0 -10 -3 -11 -14 -2 -11 9 -15 9 -19 -1 -4 -9 -6 -8 -6 3 -1
12 -8 15 -26 11 -14 -2 -23 -7 -21 -10 3 -3 0 -12 -7 -20 -9 -13 -9 -14 1 -8
8 5 12 1 12 -13 0 -14 9 -22 33 -27 45 -10 87 -12 87 -3 0 4 9 5 20 2 13 -4
26 1 35 13 15 18 15 18 9 -1 -5 -18 -4 -18 6 -2 6 9 18 17 25 17 15 0 19 11
16 38 -1 6 4 12 11 12 9 0 9 3 -2 10 -11 7 -11 10 -2 10 10 0 10 5 1 21 -7 15
-8 19 0 15 7 -5 9 -1 5 8 -3 9 -10 16 -16 16 -5 0 -6 5 -3 10 3 6 1 10 -6 10
-6 0 -20 9 -30 21 -9 11 -20 20 -24 19 -3 0 -12 6 -20 13 -11 11 -11 17 -2 27
9 10 9 11 -2 5 -10 -6 -12 -4 -6 4 4 7 16 11 26 8 11 -3 19 0 19 5 0 7 5 6 13
-1 8 -6 18 -7 23 -3 4 4 3 0 -4 -9 -10 -13 -8 -15 11 -14 12 1 23 9 25 18 2
10 8 15 13 12 5 -3 6 1 2 10 -3 10 0 21 8 26 11 7 11 9 1 9 -7 0 -10 5 -6 12
4 7 3 8 -5 4 -6 -4 -9 -13 -5 -19 3 -7 -1 -4 -10 7 -8 10 -19 15 -25 11 -6 -3
-16 -3 -23 1 -18 11 -58 14 -58 4z"/>
<path d="M1526 2572 c-3 -5 -19 -9 -35 -8 -23 2 -28 -2 -26 -16 2 -11 0 -16
-6 -12 -12 7 -71 -55 -63 -68 3 -4 -1 -11 -10 -14 -9 -3 -12 -12 -9 -21 4 -11
2 -14 -5 -9 -8 5 -10 2 -5 -9 3 -10 0 -21 -8 -26 -10 -6 -10 -9 -1 -9 6 0 12
-5 12 -11 0 -5 -6 -7 -12 -3 -9 5 -9 3 1 -9 7 -9 11 -26 8 -37 -3 -11 -1 -20
4 -20 4 0 6 -7 3 -15 -4 -8 1 -17 10 -21 9 -3 13 -11 9 -17 -3 -5 -1 -7 5 -3
6 3 17 0 25 -8 8 -8 17 -12 21 -9 3 4 6 2 6 -3 0 -5 23 -9 50 -10 28 0 50 4
50 9 0 5 8 3 17 -4 11 -10 14 -10 9 -1 -6 11 0 14 21 11 11 -1 27 34 28 63 1
15 -2 25 -7 22 -5 -3 -5 -11 -1 -17 4 -8 1 -7 -9 1 -11 9 -18 10 -23 2 -3 -6
-11 -8 -16 -4 -5 3 -6 10 -3 16 4 7 2 8 -4 4 -6 -4 -8 -14 -5 -24 6 -14 4 -15
-9 -4 -13 10 -17 10 -20 0 -4 -10 -9 -8 -22 5 -10 9 -24 17 -33 17 -13 0 -13
3 -3 15 12 14 7 19 -13 16 -5 -1 -6 3 -2 8 3 6 13 7 22 4 12 -5 14 -3 8 7 -5
9 -4 11 3 6 19 -12 53 -16 47 -5 -4 5 4 8 17 6 12 -2 29 2 36 10 8 7 18 11 23
7 5 -3 12 2 15 10 3 9 12 16 20 16 8 0 14 5 14 11 0 5 -6 7 -12 3 -8 -5 -7 0
2 11 35 43 1 126 -54 129 -11 1 -27 5 -33 9 -8 5 -13 3 -13 -5 0 -10 -2 -10
-9 1 -5 8 -11 9 -15 3z m59 -94 c6 -6 3 -7 -9 -2 -14 5 -17 4 -12 -4 8 -13
-21 -48 -31 -38 -3 3 -12 1 -19 -5 -10 -9 -15 -7 -20 5 -3 9 -11 13 -18 10 -6
-3 0 4 13 15 13 12 19 21 15 22 -5 0 0 4 11 9 21 9 54 4 70 -12z"/>
<path d="M2567 2574 c-7 -8 -29 -14 -54 -16 -7 -1 -10 -5 -7 -10 3 -4 0 -8 -6
-8 -6 0 -8 -5 -4 -12 5 -9 2 -8 -9 1 -15 12 -17 12 -12 -1 4 -9 -1 -18 -9 -21
-9 -4 -16 -16 -16 -27 0 -12 -4 -19 -8 -16 -5 3 -8 -15 -7 -39 1 -35 -3 -45
-14 -45 -10 0 -12 -3 -6 -8 18 -13 17 -35 -2 -28 -15 6 -15 5 1 -13 10 -11 16
-27 13 -36 -4 -8 -2 -15 3 -15 6 0 9 -3 9 -7 -3 -20 2 -34 10 -28 6 3 14 -2
19 -11 11 -20 72 -23 94 -4 10 8 29 15 43 16 20 1 23 -2 13 -13 -10 -12 -5
-14 27 -11 34 3 39 6 42 33 3 16 9 36 16 43 8 10 8 15 -2 21 -9 6 -8 11 5 22
15 12 17 12 9 0 -5 -10 -4 -12 4 -7 6 4 8 13 4 19 -11 18 -12 37 -2 37 11 0 7
23 -6 32 -5 4 -2 10 8 14 15 5 15 9 5 22 -11 13 -10 15 5 9 9 -3 17 -2 17 3 0
6 -5 10 -10 10 -7 0 -7 6 0 19 5 11 10 30 10 43 0 20 -5 23 -35 23 -21 0 -35
-5 -35 -12 0 -17 -15 -16 -51 2 -16 9 -34 13 -38 10 -5 -3 -11 0 -13 6 -2 5
-7 7 -11 3z m27 -86 c-5 -7 -2 -9 9 -5 17 6 31 -18 20 -35 -3 -7 -1 -8 5 -4 7
4 12 2 12 -3 0 -6 -4 -11 -9 -11 -4 0 -6 -11 -3 -25 2 -15 0 -25 -7 -25 -6 0
-11 -5 -11 -11 0 -5 5 -7 10 -4 20 12 10 -4 -23 -37 -30 -30 -66 -50 -54 -31
5 9 -18 34 -25 27 -3 -2 -5 3 -5 11 0 8 4 12 9 9 4 -3 8 0 8 5 0 6 -5 11 -11
11 -8 0 -8 5 1 15 7 8 9 15 4 15 -5 0 -2 5 6 10 13 8 13 10 1 10 -11 0 -10 4
5 16 10 8 13 12 6 9 -11 -6 -11 -3 -1 13 7 12 17 18 21 16 4 -3 8 1 8 10 0 12
9 20 28 25 2 1 0 -4 -4 -11z"/>
<path d="M4205 2566 c-11 -6 -23 -15 -27 -21 -5 -7 -8 -7 -9 0 0 6 -4 2 -8 -8
-9 -25 -25 -23 -31 4 -4 14 -14 23 -29 24 -28 2 -54 -22 -46 -42 4 -11 1 -13
-11 -9 -14 6 -15 4 -4 -10 12 -13 11 -17 -1 -25 -12 -8 -12 -10 1 -19 12 -7
12 -10 1 -10 -7 0 -11 -6 -7 -15 3 -8 1 -15 -3 -15 -5 0 -7 -9 -4 -20 3 -12 0
-20 -7 -20 -9 0 -9 -4 1 -17 12 -14 12 -15 0 -9 -10 7 -12 4 -7 -12 4 -12 2
-23 -5 -28 -8 -5 -9 -3 -4 6 5 7 4 11 -1 7 -10 -6 -11 -58 0 -75 5 -8 1 -10
-11 -5 -12 4 -10 -1 7 -15 14 -11 26 -17 28 -13 1 4 17 5 34 3 26 -4 30 -2 25
12 -4 9 -3 16 1 16 4 0 8 20 8 45 1 32 7 51 20 61 11 9 13 12 5 8 -10 -5 -12
-3 -5 7 4 8 9 20 11 28 6 41 15 61 26 58 6 -1 11 6 9 15 -2 12 2 16 12 12 8
-3 17 -1 21 5 4 7 10 7 20 -2 8 -8 10 -16 4 -24 -7 -7 -6 -14 2 -19 8 -5 9 -3
4 6 -5 8 -4 11 3 6 6 -4 9 -13 6 -21 -4 -8 -10 -12 -15 -9 -13 7 -7 -19 6 -28
6 -5 5 -8 -2 -8 -7 0 -10 -7 -6 -17 4 -10 2 -14 -4 -10 -6 4 -8 -3 -5 -20 4
-20 2 -24 -9 -18 -12 7 -12 6 -1 -7 9 -11 10 -18 2 -23 -6 -3 -8 -11 -5 -16 4
-5 3 -9 -2 -9 -4 0 -8 -11 -8 -24 0 -18 5 -23 22 -21 12 1 27 -1 34 -6 8 -4
18 -1 27 9 9 12 11 12 6 2 -4 -9 -3 -12 2 -7 5 5 10 17 10 28 3 36 4 40 12 35
5 -3 9 1 9 9 0 8 -3 12 -7 10 -4 -2 -7 2 -7 10 0 8 4 12 7 10 4 -3 8 7 9 20 1
14 2 36 3 50 1 14 6 25 10 25 4 0 8 5 8 11 0 5 -4 7 -10 4 -6 -3 -7 1 -4 9 3
9 10 13 15 10 5 -3 6 2 3 10 -3 9 -11 13 -18 9 -6 -3 -6 -1 2 8 15 17 16 33 0
23 -8 -5 -9 -2 -5 10 4 10 1 19 -8 22 -8 4 -15 12 -15 19 0 7 -8 12 -17 10
-10 -1 -25 1 -33 5 -8 4 -24 3 -35 -4z"/>
<path d="M3219 2563 c-1 -2 -2 -6 -3 -10 -1 -5 -8 -19 -15 -33 -14 -24 -13
-24 5 -10 19 14 19 14 1 -7 -11 -12 -16 -27 -12 -32 3 -6 2 -11 -4 -11 -6 0
-8 -7 -4 -16 3 -9 0 -20 -8 -25 -12 -7 -12 -9 0 -9 11 0 11 -3 0 -17 -12 -15
-12 -16 1 -8 13 8 13 6 2 -8 -8 -9 -11 -21 -8 -26 4 -5 1 -13 -5 -16 -5 -4 -8
-13 -5 -21 3 -7 0 -16 -6 -20 -7 -5 -8 -2 -3 6 5 9 4 11 -4 6 -6 -4 -8 -13 -4
-19 4 -6 7 -23 7 -37 1 -29 37 -40 63 -18 9 7 14 8 10 2 -3 -6 0 -11 8 -11 7
0 12 8 10 19 -2 10 0 18 4 18 5 0 6 11 3 25 -3 17 0 25 9 25 11 0 11 2 -1 10
-11 7 -11 10 -2 10 7 0 10 5 7 10 -3 6 -1 10 5 10 6 0 8 5 4 11 -3 6 0 15 7
20 12 7 12 9 0 9 -9 0 -10 4 -4 13 5 6 9 30 9 53 -1 36 1 40 19 36 19 -5 19
-5 3 12 -20 19 -24 31 -8 21 6 -4 10 6 10 22 0 22 -2 25 -10 13 -5 -8 -10 -10
-10 -5 0 8 -68 16 -71 8z"/>
<path d="M2575 2229 c-4 -6 -5 -12 -2 -15 2 -3 7 2 10 11 7 17 1 20 -8 4z"/>
<path d="M2173 1986 c3 -7 -2 -24 -10 -37 -9 -12 -11 -19 -5 -15 16 10 15 -6
0 -23 -10 -11 -10 -13 0 -7 15 9 16 -6 1 -21 -8 -8 -8 -13 0 -17 15 -10 14
-29 -1 -20 -10 6 -10 4 0 -7 14 -15 16 -33 3 -25 -11 7 -9 -13 2 -31 5 -8 3
-13 -5 -13 -9 0 -9 -3 2 -10 12 -8 12 -10 1 -10 -11 0 -11 -3 -1 -15 10 -12
10 -15 -1 -15 -11 0 -11 -2 1 -10 8 -5 10 -10 4 -10 -6 0 -11 -7 -11 -15 0 -8
4 -15 9 -15 5 0 6 -4 3 -10 -12 -19 -14 -50 -3 -50 7 0 6 -5 -2 -15 -6 -8 -9
-19 -5 -25 8 -13 32 -13 41 2 5 7 3 8 -6 3 -9 -6 -11 -4 -6 4 5 7 15 10 24 6
9 -3 14 -3 10 0 -10 10 64 95 82 95 6 0 8 5 5 10 -3 6 1 10 10 10 9 0 14 5 10
13 -3 6 0 4 7 -6 7 -10 21 -28 30 -39 10 -11 15 -25 11 -31 -4 -6 0 -8 10 -4
12 5 19 -1 23 -18 3 -14 10 -22 15 -19 5 3 9 1 9 -4 0 -5 9 -19 20 -32 l20
-23 0 26 c0 15 6 27 13 27 8 0 7 4 -3 10 -13 9 -13 11 0 20 12 8 12 10 1 10
-10 0 -11 3 -2 14 9 11 9 15 -1 19 -8 4 -9 8 -3 14 13 10 18 36 6 29 -5 -3 -8
5 -7 18 0 13 4 22 9 19 4 -2 7 1 7 6 0 6 -6 11 -12 11 -9 0 -8 4 2 10 13 9 13
10 0 11 -10 0 -8 3 5 9 11 5 14 9 7 9 -7 1 -10 6 -7 11 3 6 2 10 -3 10 -16 0
-9 30 7 31 11 0 12 2 3 6 -6 2 -10 9 -6 14 3 5 1 9 -5 9 -7 0 -7 8 -1 26 12
31 12 37 1 30 -5 -3 -9 0 -8 7 1 40 -3 49 -17 38 -11 -9 -16 -9 -22 0 -4 8 -3
9 4 5 7 -4 12 -2 12 3 0 16 -11 13 -32 -6 -15 -14 -18 -14 -13 -2 4 12 -1 15
-24 14 -16 -1 -37 -7 -45 -15 -14 -11 -16 -11 -11 1 4 10 -2 15 -15 16 -11 1
-20 -2 -20 -8 0 -14 -38 -11 -43 4 -4 10 -6 10 -6 0 -1 -7 -6 -13 -12 -13 -5
0 -7 6 -3 13 4 6 -3 3 -16 -8 -13 -11 -20 -15 -17 -9 4 7 0 15 -9 18 -11 4
-15 2 -11 -8z"/>
</g>
</svg>
